<?xml version="1.0" encoding="UTF-8"?>
<svg width="265px" height="515px" viewBox="0 0 265 515" version="1.1" xmlns="http://www.w3.org/2000/svg" xmlns:xlink="http://www.w3.org/1999/xlink">
    <!-- Generator: Sketch 52.6 (67491) - http://www.bohemiancoding.com/sketch -->
    <title>smartphone</title>
    <desc>Created with Sketch.</desc>
    <defs>
        <polygon id="path-1" points="15 472 250 472 250 44 15 44"></polygon>
    </defs>
    <g id="smartphone" stroke="none" stroke-width="1" fill="none" fill-rule="evenodd">
        <path d="M237.726719,512.000368 L27.2760084,512.000368 C13.8683769,512.000368 3.000296,501.216824 3.000296,487.914543 L3.000296,27.086193 C3.000296,13.7839117 13.8683769,3.000368 27.2760084,3.000368 L237.726719,3.000368 C251.133283,3.000368 262.000296,13.7839117 262.000296,27.086193 L262.000296,487.914543 C262.000296,501.216824 251.133283,512.000368 237.726719,512.000368 Z" id="Stroke-1" fill="#1B094F"></path>
        <path d="M237.712669,509.01142 C249.450838,509.01142 258.965716,499.568514 258.965716,487.919546 L258.965716,27.0811901 C258.965716,15.4322219 249.450838,5.9893162 237.712669,5.9893162 L27.2900574,5.9893162 C15.5507213,5.9893162 6.03487634,15.4323213 6.03487634,27.0811901 L6.03487634,487.919546 C6.03487634,499.568415 15.5507213,509.01142 27.2900574,509.01142 L237.712669,509.01142 Z M237.712669,515.000368 L27.2900574,515.000368 C12.2180409,515.000368 0.000296,502.876145 0.000296,487.919546 L0.000296,27.0811901 C0.000296,12.1245911 12.2180409,0.000368 27.2900574,0.000368 L237.712669,0.000368 C252.783641,0.000368 265.000296,12.124614 265.000296,27.0811901 L265.000296,487.919546 C265.000296,502.876122 252.783641,515.000368 237.712669,515.000368 Z" id="Stroke-1" fill="#FFFFFF" fill-rule="nonzero"></path>
        <path d="M105,27 C103.343146,27 102,25.6568542 102,24 C102,22.3431458 103.343146,21 105,21 L159.99703,21 C161.653884,21 162.99703,22.3431458 162.99703,24 C162.99703,25.6568542 161.653884,27 159.99703,27 L105,27 Z" id="Stroke-3" fill="#FFFFFF" fill-rule="nonzero"></path>
        <path d="M83.71,494 C82.0531458,494 81,492.656854 81,491 C81,489.343146 82.3431458,488 84,488 L180.996259,488 C182.653113,488 183.996259,489.343146 183.996259,491 C183.996259,492.656854 182.653113,494 180.996259,494 L83.71,494 Z" id="Stroke-5" fill="#FFFFFF" fill-rule="nonzero"></path>
    </g>
</svg>
